HIERARCHY
ROOT Hips
{
	OFFSET 0.000000 0.000000 0.000000
	CHANNELS 6 Xposition Yposition Zposition Xrotation Zrotation Yrotation
	JOINT LHipJoint
	{
		OFFSET 0.000000 0.000000 0.000000
		CHANNELS 6 Xposition Yposition Zposition Xrotation Zrotation Yrotation
		JOINT LeftUpLeg
		{
			OFFSET 0.165674 -0.062477 -0.180282
			CHANNELS 3 Xrotation Zrotation Yrotation
			JOINT LeftLeg
			{
				OFFSET 0.259720 0.000000 -0.713576
				CHANNELS 6 Xposition Yposition Zposition Xrotation Zrotation Yrotation
				JOINT LeftFoot
				{
					OFFSET 0.249236 0.000000 -0.684770
					CHANNELS 6 Xposition Yposition Zposition Xrotation Zrotation Yrotation
					JOINT LeftToeBase
					{
						OFFSET 0.019704 -0.214581 -0.054136
						CHANNELS 6 Xposition Yposition Zposition Xrotation Zrotation Yrotation
						End Site
						{
							OFFSET 0.000000 -0.111249 0.000000
						}
					}
				}
			}
		}
	}
	JOINT RHipJoint
	{
		OFFSET 0.000000 0.000000 0.000000
		CHANNELS 6 Xposition Yposition Zposition Xrotation Zrotation Yrotation
		JOINT RightUpLeg
		{
			OFFSET -0.161070 -0.062476 -0.180282
			CHANNELS 3 Xrotation Zrotation Yrotation
			JOINT RightLeg
			{
				OFFSET -0.259502 0.000000 -0.712977
				CHANNELS 6 Xposition Yposition Zposition Xrotation Zrotation Yrotation
				JOINT RightFoot
				{
					OFFSET -0.246780 0.000000 -0.678024
					CHANNELS 6 Xposition Yposition Zposition Xrotation Zrotation Yrotation
					JOINT RightToeBase
					{
						OFFSET -0.023024 -0.213368 -0.063258
						CHANNELS 6 Xposition Yposition Zposition Xrotation Zrotation Yrotation
						End Site
						{
							OFFSET 0.000000 -0.111569 0.000000
						}
					}
				}
			}
		}
	}
	JOINT LowerBack
	{
		OFFSET 0.000000 0.000000 0.000000
		CHANNELS 6 Xposition Yposition Zposition Xrotation Zrotation Yrotation
		JOINT Spine
		{
			OFFSET 0.001961 0.014112 0.205450
			CHANNELS 3 Xrotation Zrotation Yrotation
			JOINT Spine1
			{
				OFFSET 0.001021 0.005921 0.206436
				CHANNELS 6 Xposition Yposition Zposition Xrotation Zrotation Yrotation
				JOINT Neck
				{
					OFFSET 0.000000 0.000000 0.000000
					CHANNELS 6 Xposition Yposition Zposition Xrotation Zrotation Yrotation
					JOINT Neck1
					{
						OFFSET 0.000713 -0.014968 0.156711
						CHANNELS 3 Xrotation Zrotation Yrotation
						JOINT Head
						{
							OFFSET 0.003429 0.010006 0.156041
							CHANNELS 6 Xposition Yposition Zposition Xrotation Zrotation Yrotation
							End Site
							{
								OFFSET 0.001305 0.005265 0.162560
							}
						}
					}
				}
				JOINT LeftShoulder
				{
					OFFSET 0.000000 0.000000 0.000000
					CHANNELS 6 Xposition Yposition Zposition Xrotation Zrotation Yrotation
					JOINT LeftArm
					{
						OFFSET 0.354205 0.017364 0.090436
						CHANNELS 3 Xrotation Zrotation Yrotation
						JOINT LeftForeArm
						{
							OFFSET 0.486513 0.000000 0.000000
							CHANNELS 6 Xposition Yposition Zposition Xrotation Zrotation Yrotation
							JOINT LeftHand
							{
								OFFSET 0.335554 0.000000 0.000000
								CHANNELS 6 Xposition Yposition Zposition Xrotation Zrotation Yrotation
								JOINT LeftFingerBase
								{
									OFFSET 0.000000 0.000000 0.000000
									CHANNELS 6 Xposition Yposition Zposition Xrotation Zrotation Yrotation
									JOINT LeftHandIndex1
									{
										OFFSET 0.066117 0.000000 0.000000
										CHANNELS 3 Xrotation Zrotation Yrotation
										End Site
										{
											OFFSET 0.053306 0.000000 0.000000
										}
									}
								}
								JOINT LThumb
								{
									OFFSET 0.000000 0.000000 0.000000
									CHANNELS 6 Xposition Yposition Zposition Xrotation Zrotation Yrotation
									End Site
									{
										OFFSET 0.054120 -0.054120 0.000000
									}
								}
							}
						}
					}
				}
				JOINT RightShoulder
				{
					OFFSET 0.000000 0.000000 0.000000
					CHANNELS 6 Xposition Yposition Zposition Xrotation Zrotation Yrotation
					JOINT RightArm
					{
						OFFSET -0.349802 0.032616 0.075994
						CHANNELS 3 Xrotation Zrotation Yrotation
						JOINT RightForeArm
						{
							OFFSET -0.502649 0.000000 0.000000
							CHANNELS 6 Xposition Yposition Zposition Xrotation Zrotation Yrotation
							JOINT RightHand
							{
								OFFSET -0.336431 0.000000 0.000000
								CHANNELS 6 Xposition Yposition Zposition Xrotation Zrotation Yrotation
								JOINT RightFingerBase
								{
									OFFSET 0.000000 0.000000 0.000000
									CHANNELS 6 Xposition Yposition Zposition Xrotation Zrotation Yrotation
									JOINT RightHandIndex1
									{
										OFFSET -0.073041 0.000000 0.000000
										CHANNELS 3 Xrotation Zrotation Yrotation
										End Site
										{
											OFFSET -0.058887 0.000000 0.000000
										}
									}
								}
								JOINT RThumb
								{
									OFFSET 0.000000 0.000000 0.000000
									CHANNELS 6 Xposition Yposition Zposition Xrotation Zrotation Yrotation
									End Site
									{
										OFFSET -0.059786 -0.059786 0.000000
									}
								}
							}
						}
					}
				}
			}
		}
	}
}
MOTION
Frames: 7
Frame Time: 0.041667
0.025685 -0.019635 1.719980 8.154461 3.524574 -0.666856 -0.000000 0.000000 -0.000000 0.000002 0.000001 -0.000001 12.724599 -7.252837 23.797161 0.259720 0.000000 -0.713576 22.945793 8.076217 1.641702 0.249236 0.000000 -0.684770 24.312892 16.120326 5.519916 0.019704 -0.214581 -0.054136 0.000000 0.000000 0.000001 -0.000000 0.000000 -0.000000 -0.000002 0.000003 -0.000003 -39.906487 3.836587 -25.270853 -0.259502 0.000000 -0.712977 47.040606 -14.915364 -6.521581 -0.246780 0.000000 -0.678024 -23.881348 -6.022316 3.859967 -0.023024 -0.213368 -0.063258 -19.431892 6.904191 -1.183546 -0.000000 0.000000 -0.000000 6.633678 -4.568526 1.662982 0.630588 -5.878931 -1.603503 0.001021 0.005921 0.206436 -2.749977 -3.059226 -3.193589 -0.000000 0.000000 0.000000 -15.320300 3.857944 1.830471 -4.954663 4.699567 -0.337126 0.003429 0.010006 0.156041 0.924166 2.393528 -0.660187 -0.000000 0.000000 0.000000 -0.000002 0.000001 0.000002 23.380834 -57.810796 55.075883 0.486513 -0.000000 0.000000 -87.751484 -126.241922 51.965227 0.335554 0.000000 -0.000000 -33.802603 0.000002 0.000004 0.000000 0.000000 0.000000 -0.000015 4.274060 -32.841161 0.000000 0.000001 7.125001 -0.000000 0.000000 -0.000000 -5.160661 33.899045 -7.177275 -0.000000 0.000000 0.000000 0.000000 0.000001 0.000001 48.505364 32.568483 -80.461616 -0.502649 0.000000 -0.000000 46.118219 58.999632 73.916621 -0.336431 -0.000000 -0.000000 -13.428704 -0.000001 -0.000001 -0.000000 0.000000 -0.000000 -0.000017 45.943407 37.974185 -0.000000 -0.000001 -7.124998 -0.000000 0.000000 0.000000 -8.105238 16.626641 5.503019 
0.025685 -0.019635 1.719980 8.154461 3.524574 -0.666856 -0.000000 0.000000 -0.000000 0.000002 0.000001 -0.000001 12.724599 -7.252837 23.797161 0.259720 0.000000 -0.713576 22.945793 8.076217 1.641702 0.249236 0.000000 -0.684770 24.312892 16.120326 5.519916 0.019704 -0.214581 -0.054136 0.000000 0.000000 0.000001 -0.000000 0.000000 -0.000000 -0.000002 0.000003 -0.000003 -39.906487 3.836587 -25.270853 -0.259502 0.000000 -0.712977 47.040606 -14.915364 -6.521581 -0.246780 0.000000 -0.678024 -23.881348 -6.022316 3.859967 -0.023024 -0.213368 -0.063258 -19.431892 6.904191 -1.183546 -0.000000 0.000000 -0.000000 6.633678 -4.568526 1.662982 0.630588 -5.878931 -1.603503 0.001021 0.005921 0.206436 -2.749977 -3.059226 -3.193589 -0.000000 0.000000 0.000000 -15.320300 3.857944 1.830471 -4.954663 4.699567 -0.337126 0.003429 0.010006 0.156041 0.924166 2.393528 -0.660187 -0.000000 0.000000 0.000000 -0.000002 0.000001 0.000002 23.380834 -57.810796 55.075883 0.486513 -0.000000 0.000000 -87.751484 -126.241922 51.965227 0.335554 0.000000 -0.000000 -33.802603 0.000002 0.000004 0.000000 0.000000 0.000000 -0.000015 4.274060 -32.841161 0.000000 0.000001 7.125001 -0.000000 0.000000 -0.000000 -5.160661 33.899045 -7.177275 -0.000000 0.000000 0.000000 0.000000 0.000001 0.000001 48.505364 32.568483 -80.461616 -0.502649 0.000000 -0.000000 46.118219 58.999632 73.916621 -0.336431 -0.000000 -0.000000 -13.428704 -0.000001 -0.000001 -0.000000 0.000000 -0.000000 -0.000017 45.943407 37.974185 -0.000000 -0.000001 -7.124998 -0.000000 0.000000 0.000000 -8.105238 16.626641 5.503019 
0.025685 -0.019635 1.725907 7.805831 3.582544 -1.363464 -0.000000 -0.000000 0.000000 0.000003 -0.000000 -0.000002 12.618620 -7.286191 24.400977 0.259720 0.000000 -0.713576 24.377908 8.543585 1.848766 0.249236 0.000000 -0.684770 24.212753 17.673068 6.302619 0.019704 -0.214581 -0.054136 0.000002 -0.000001 -0.000002 -0.000000 -0.000000 0.000000 0.000001 0.000003 0.000002 -38.517373 4.289539 -24.618995 -0.259502 0.000000 -0.712977 43.857488 -14.153909 -5.722458 -0.246780 0.000000 -0.678024 -24.563100 -5.268991 3.771896 -0.023024 -0.213368 -0.063258 -20.674081 7.322415 -1.337317 -0.000000 -0.000000 0.000000 6.608240 -4.651016 2.267044 0.692047 -5.945724 -1.441241 0.001021 0.005921 0.206436 -2.624695 -3.090445 -3.361987 -0.000000 0.000000 -0.000000 -15.529658 4.026859 2.055906 -4.616679 4.862642 -0.495844 0.003429 0.010006 0.156041 1.060392 2.488923 -0.775720 -0.000000 0.000000 -0.000000 -0.000001 0.000001 0.000001 25.306158 -58.245811 54.186394 0.486513 -0.000000 0.000000 -88.582486 -125.866425 52.993116 0.335554 0.000000 -0.000000 -34.375700 0.000000 0.000005 0.000000 -0.000000 0.000000 -0.000063 3.220832 -32.491657 0.000000 0.000001 7.125003 -0.000000 0.000000 0.000000 -4.817072 32.887781 -6.673836 0.000000 0.000000 -0.000000 0.000000 0.000000 0.000001 47.722634 32.662067 -80.840548 -0.502649 0.000000 0.000000 46.582180 59.067257 74.457709 -0.336431 -0.000000 -0.000000 -13.194600 -0.000003 -0.000000 -0.000000 0.000000 -0.000000 -0.000064 45.193852 37.900320 0.000002 -0.000003 -7.124998 -0.000000 0.000000 0.000000 -8.022212 15.875863 5.577320 
0.024295 -0.019635 1.726151 7.621286 3.860557 -2.534075 -0.000000 0.000000 -0.000000 -0.000001 -0.000001 0.000000 12.249367 -6.705908 25.592553 0.259720 0.000000 -0.713576 27.127496 9.422911 2.278133 0.249236 0.000000 -0.684770 23.738599 16.827698 5.787334 0.019704 -0.214581 -0.054136 0.000000 0.000000 -0.000002 -0.000000 0.000000 -0.000000 -0.000001 0.000005 -0.000003 -37.904350 4.620412 -23.348298 -0.259502 0.000000 -0.712977 42.035597 -13.696618 -5.283956 -0.246780 0.000000 -0.678024 -25.394377 -4.125023 3.557418 -0.023024 -0.213368 -0.063258 -20.602186 7.298295 -1.328212 -0.000000 0.000000 -0.000000 6.280236 -4.850916 3.278551 0.866982 -6.147478 -1.248062 0.001021 0.005921 0.206436 -2.171303 -3.182682 -3.694368 -0.000000 0.000000 -0.000000 -16.103836 4.191803 2.439213 -4.151599 4.996650 -0.428443 0.003429 0.010006 0.156041 1.300378 2.555390 -0.860349 -0.000000 0.000000 -0.000000 -0.000001 0.000000 0.000002 26.377060 -58.647563 54.200242 0.486513 -0.000000 0.000000 -89.518194 -125.463718 54.144836 0.335554 -0.000000 0.000000 -34.166601 0.000002 -0.000002 0.000000 -0.000000 0.000000 -0.000056 2.120663 -32.693855 0.000001 0.000001 7.125001 -0.000000 -0.000000 0.000000 -4.919971 31.770085 -6.787628 0.000000 0.000000 -0.000000 0.000002 0.000000 0.000001 46.547797 32.687025 -80.903714 -0.502649 0.000000 0.000000 46.878290 59.109113 74.802886 -0.336431 0.000000 0.000000 -12.658203 -0.000001 -0.000001 -0.000000 0.000000 0.000000 0.000013 44.933038 37.620262 0.000002 -0.000002 -7.125000 -0.000000 0.000000 0.000000 -7.813964 15.585086 5.479197 
0.023805 -0.019635 1.724543 7.456058 3.780526 -3.341085 -0.000000 0.000000 -0.000000 0.000003 -0.000000 0.000003 11.527311 -5.944957 26.383786 0.259720 0.000000 -0.713576 30.315904 10.410284 2.827443 0.249236 0.000000 -0.684770 21.990521 15.803741 5.012785 0.019704 -0.214581 -0.054136 0.000000 -0.000001 -0.000006 -0.000000 0.000000 -0.000000 0.000000 0.000004 -0.000002 -37.137822 4.966304 -22.728313 -0.259502 0.000000 -0.712977 40.037292 -13.177707 -4.819571 -0.246780 0.000000 -0.678024 -25.071773 -3.742705 3.340831 -0.023024 -0.213368 -0.063258 -20.492886 7.261710 -1.314338 -0.000000 0.000000 -0.000000 6.022726 -4.670208 3.878163 1.318377 -5.874019 -0.823672 0.001021 0.005921 0.206436 -1.564358 -3.021590 -3.490301 0.000000 -0.000000 -0.000000 -17.454231 3.927635 1.737390 -3.846494 4.804021 0.149393 0.003429 0.010006 0.156041 1.657620 2.406002 -0.586098 -0.000000 -0.000000 -0.000000 -0.000001 -0.000000 -0.000001 28.217856 -59.104564 52.594844 0.486513 -0.000000 0.000000 -90.495683 -125.064834 55.341946 0.335554 -0.000000 0.000000 -33.849202 -0.000002 0.000006 0.000000 0.000000 0.000000 -0.000010 2.345775 -32.338586 0.000000 0.000001 7.125002 -0.000000 0.000000 -0.000000 -4.648318 32.031576 -6.418080 0.000000 -0.000000 -0.000000 0.000001 -0.000001 -0.000000 43.970634 32.890735 -82.100697 -0.502649 0.000000 0.000000 47.080173 59.136966 75.038097 -0.336431 0.000000 0.000000 -12.166299 -0.000000 -0.000002 -0.000000 0.000000 -0.000000 -0.000010 44.888393 37.582484 -0.000001 -0.000003 -7.125001 -0.000000 0.000000 -0.000000 -7.785622 15.536577 5.467193 
0.021895 -0.019635 1.724014 7.818405 3.675303 -2.698001 -0.000000 -0.000000 0.000000 0.000002 0.000001 -0.000001 9.850728 -5.219731 25.711371 0.259720 0.000000 -0.713576 34.206906 11.564085 3.569332 0.249236 0.000000 -0.684770 17.424125 13.583340 3.453574 0.019704 -0.214581 -0.054136 0.000001 -0.000001 -0.000003 -0.000000 -0.000000 0.000000 0.000004 0.000002 -0.000003 -36.992308 4.251667 -23.359069 -0.259502 0.000000 -0.712977 38.562104 -12.783189 -4.488227 -0.246780 0.000000 -0.678024 -24.439042 -3.620629 3.155922 -0.023024 -0.213368 -0.063258 -20.814986 7.369608 -1.355356 -0.000000 -0.000000 0.000000 5.921869 -4.500097 2.950949 1.077448 -5.726464 -0.937777 0.001021 0.005921 0.206436 -1.841877 -2.945139 -3.091056 -0.000000 -0.000000 0.000000 -17.192356 3.778513 1.270123 -3.812656 4.771306 0.817366 0.003429 0.010006 0.156041 1.641456 2.332547 -0.277734 -0.000000 -0.000000 0.000000 0.000000 0.000000 0.000001 29.880001 -59.291677 52.477279 0.486513 -0.000000 0.000000 -91.372898 -124.724650 56.411461 0.335554 -0.000000 0.000000 -33.158492 -0.000000 0.000002 0.000000 0.000000 0.000000 0.000024 2.858312 -31.627345 0.000001 0.000001 7.125002 -0.000000 0.000000 -0.000000 -4.102533 32.610704 -5.674843 0.000000 -0.000000 0.000000 0.000002 -0.000001 -0.000001 42.843239 33.131079 -82.452807 -0.502649 -0.000000 0.000000 47.738528 59.224748 75.804759 -0.336431 0.000000 0.000000 -12.100204 -0.000002 0.000000 -0.000000 0.000000 -0.000000 -0.000042 44.739498 37.589372 -0.000002 -0.000000 -7.124998 0.000000 0.000000 -0.000000 -7.784924 15.389903 5.491351 
0.021645 -0.019635 1.723188 7.494573 3.263724 -1.973932 -0.000000 -0.000000 -0.000000 0.000001 0.000001 -0.000001 8.788649 -4.354313 24.776518 0.259720 0.000000 -0.713576 38.608307 12.795670 4.498471 0.249236 0.000000 -0.684770 17.058469 11.837902 2.793530 0.019704 -0.214581 -0.054136 0.000001 -0.000000 -0.000000 -0.000000 -0.000000 -0.000000 0.000001 0.000001 -0.000001 -36.002883 3.739702 -24.432398 -0.259502 0.000000 -0.712977 37.545912 -12.505865 -4.265798 -0.246780 0.000000 -0.678024 -24.118769 -3.797158 3.149578 -0.023024 -0.213368 -0.063258 -20.582490 7.291697 -1.325713 -0.000000 -0.000000 -0.000000 6.326027 -4.182611 2.309342 1.105356 -5.331688 -1.070466 0.001021 0.005921 0.206436 -2.107686 -2.754240 -2.872416 -0.000000 0.000000 0.000000 -17.403932 3.427421 0.250035 -3.284896 4.604461 1.822604 0.003429 0.010006 0.156041 1.893418 2.160456 0.218979 -0.000000 -0.000000 0.000000 0.000001 -0.000001 0.000001 31.701500 -59.502832 52.072976 0.486513 -0.000000 0.000000 -92.422882 -124.338963 57.685954 0.335554 -0.000000 0.000000 -32.475903 0.000000 0.000001 0.000000 0.000000 0.000000 0.000005 1.995276 -31.327066 -0.000000 0.000001 7.125003 -0.000000 0.000000 0.000000 -3.824171 31.775730 -5.271493 -0.000000 -0.000000 0.000000 0.000002 -0.000001 -0.000001 41.279666 33.330609 -83.144965 -0.502649 0.000000 -0.000000 48.345090 59.301055 76.510406 -0.336431 -0.000000 -0.000000 -11.932900 0.000000 -0.000000 -0.000000 -0.000000 -0.000000 0.000015 45.077036 36.965517 -0.000000 -0.000002 -7.124999 -0.000000 0.000000 0.000000 -7.356389 15.655378 5.141538 
